<?xml version="1.0" encoding="iso-8859-1"?>
<!-- Generator: Adobe Illustrator 19.0.0, SVG Export Plug-In . SVG Version: 6.00 Build 0)  -->
<svg version="1.1" id="Capa_1" xmlns="http://www.w3.org/2000/svg" xmlns:xlink="http://www.w3.org/1999/xlink" x="0px" y="0px"
	 viewBox="0 0 512 512" style="enable-background:new 0 0 512 512;" xml:space="preserve">
<circle style="fill:#0D002A;" cx="256" cy="256" r="256"/>
<g>
	<path style="fill:#EDA2FF;" d="M276.211,386.831L174.386,54.668c-4.368-13.908-18.589-22.591-35.694-26.269
		c-6.343-1.369-13.072-2.048-19.853-2.048c-25.046,0-49.549,9.258-55.536,28.317l-16.3,53.467L0.076,262.028
		c1.202,52.025,17.92,100.227,45.725,140.131l15.862-58.347H176.57l18.505,68.075c3.271,11.431,14.158,15.788,27.773,15.788
		c23.416,0,54.46-14.702,54.46-34.847C277.309,391.188,276.765,389.014,276.211,386.831z M79.091,278.475l39.748-145.941
		l39.758,145.941H79.091z"/>
	<path style="fill:#EDA2FF;" d="M458.473,319.309c25.046,0,52.82-2.173,52.82-50.636c0-61.534-54.45-103.466-117.07-103.466
		c-69.705,0-125.252,51.733-125.252,112.724v39.748c0,69.151,57.177,115.44,137.77,115.44c13.709,0,26.331-1.411,37.679-3.824
		c20.396-22.141,36.916-47.898,48.525-76.194c-4.441-3.657-9.801-6.019-15.956-6.019c-17.972,0-34.304,20.146-68.065,20.146
		c-33.217,0-55.547-17.962-55.547-44.648v-3.271L458.473,319.309L458.473,319.309z M353.377,258.872
		c0-21.786,19.602-32.674,39.205-32.674c20.156,0,39.758,10.888,39.758,32.674c0,10.344-3.814,13.061-11.442,13.061h-67.521
		L353.377,258.872L353.377,258.872z"/>
</g>
<g>
</g>
<g>
</g>
<g>
</g>
<g>
</g>
<g>
</g>
<g>
</g>
<g>
</g>
<g>
</g>
<g>
</g>
<g>
</g>
<g>
</g>
<g>
</g>
<g>
</g>
<g>
</g>
<g>
</g>
</svg>
