<svg version="1.1" id="Capa_1" xmlns="http://www.w3.org/2000/svg" xmlns:xlink="http://www.w3.org/1999/xlink" x="0px" y="0px"
	 viewBox="0 0 512 512" style="enable-background:new 0 0 512 512;" xml:space="preserve">
    <circle style="fill:#261300" cx="256" cy="256" r="256" />
    <g>
        <path style="fill:#FF7C00;" d="M349.939,404.479L244.426,60.29c-6.207-19.749-31.598-29.341-57.553-29.341
        s-51.346,9.592-57.553,29.341L31.894,379.82c13.908,25.14,31.932,47.689,53.164,66.738c11.536-1.066,20.438-5.831,23.385-16.123
        l19.184-70.531h119.056l19.184,70.531c3.385,11.849,14.67,16.363,28.776,16.363c24.263,0,56.424-15.235,56.424-36.112
        C351.068,408.993,350.504,406.736,349.939,404.479z M145.683,292.194l41.19-151.218l41.19,151.218H145.683z" />
        <path style="fill:#FF7C00;" d="M422.152,45.619c-5.841,0-11.4,0.94-16.499,2.654c-17.575,5.872-29.769,20.793-29.769,37.407
        c0,21.441,20.313,40.626,46.268,40.626c17.481,0,32.559-9.101,40.26-21.765c3.479-5.726,5.444-12.184,5.444-18.86
        C467.856,64.239,447.543,45.619,422.152,45.619z M422.152,178.217c-25.391,0-43.447,10.721-43.447,26.52v214.977
        c0,13.542,18.056,27.084,43.447,27.084c1.599,0,3.176-0.063,4.723-0.178c14.743-13.218,27.941-28.118,39.288-44.408V204.736
        C466.163,188.937,446.415,178.217,422.152,178.217z" />
    </g>
</svg>
