<svg xmlns="http://www.w3.org/2000/svg" viewBox="0 0 6.96 4.78"><defs><style>.cls-1,.cls-2{fill:#b7b7b7;}.cls-2{font-size:0.8px;font-family:TimesNewRomanPSMT, Times New Roman;letter-spacing:0.05em;}.cls-3{font-size:0.41px;letter-spacing:0.26em;}</style></defs><g id="Layer_2" data-name="Layer 2"><g id="Layer_1-2" data-name="Layer 1"><line class="cls-1" y1="3.34" x2="6.96" y2="3.34"/><path class="cls-1" d="M1.94,1.94h0l0,0v0s0,0,0,0,0,0,0,0,0,0,0,0a0,0,0,0,0,0,0s0,0,0,0l-.24.06-.12,0a0,0,0,0,1-.05,0h0a0,0,0,0,0,0,0s0,0,0,0,0,0,0,0a.2.2,0,0,0,0-.11.05.05,0,0,0,0,0h0a.3.3,0,0,0-.18.06s0,0,0,0a.07.07,0,0,0,0,.05h0s0,0,0,0a0,0,0,0,0-.05,0L1,1.84h0s0,0,0,0l0,0s-.06,0-.09.05L.74,2l-.15.1a.41.41,0,0,0-.17.2.09.09,0,0,0,0,.05.1.1,0,0,0,0,0v0l0,0a.11.11,0,0,0,0,.08.19.19,0,0,0,0,.1l0,0,.11.14s.05,0,.06.06l0,0h0a.15.15,0,0,1-.07,0l-.1,0h0s0,0,0,0h0l-.06,0h0s0-.06-.07-.07h0s0,0-.06,0l0,0v0s0,.05,0,.07l0,0,0,0V3A.13.13,0,0,0,0,3.1a.08.08,0,0,0,.05,0,.07.07,0,0,0,.08,0s0,0,0,0h0a0,0,0,0,1,0,0s0,0,0,0l0,0H.38a.17.17,0,0,0,.14,0,.79.79,0,0,0,.22.05H.86a0,0,0,0,0,0,0l0,0h0s0,0,0,0,0,0,0,0a0,0,0,0,1,0,0,0,0,0,0,0,0,0h.15a.07.07,0,0,0,.07,0h0a0,0,0,0,0,0,0s0,0,0,0a.19.19,0,0,0-.09,0h0s0,0,0,0,0-.05.06-.09h0l0,0,0-.07h0a1,1,0,0,0,0-.24.28.28,0,0,1,0-.09l.07.09a0,0,0,0,0,0,0h0l0,0a.24.24,0,0,0,.09-.11.06.06,0,0,1,0,0,.29.29,0,0,1,.09-.15l.09-.08s0,0,0-.06h0a.25.25,0,0,1,.12,0l.09,0H2S2,2,1.94,1.94ZM1,2.59a1.29,1.29,0,0,1-.09.16.76.76,0,0,0,0,.16s0,0,0,0l0-.07a.58.58,0,0,1,0-.14s0,0,0-.06H.83L1,2.53A.13.13,0,0,1,1,2.59Zm.13-.28h0Zm.26-.26,0,.05h0l-.07.05h0s0,0,0,0V2.07s0,0,0,0l0,0h.05V2h0V2Zm.12.05s0,0,0,0h0l0,.06h0l0,0a.05.05,0,0,0,0,0s0,0,0,0Z"/><path class="cls-1" d="M3.65,1.36s0,0,0,0a0,0,0,0,1,0,0,.11.11,0,0,0,0-.08.07.07,0,0,0,0-.05l0,0H3.54a0,0,0,0,0,0,0,0,0,0,0,1,0,0h-.1s0,0-.05-.05H3.26v0h0a.21.21,0,0,0,0-.17V1A.53.53,0,0,0,2.89.94h0s0,0,0,0l0,0s0,0,0,.06l0,.08a.43.43,0,0,0,0,.05l0,0a.17.17,0,0,0-.1,0h0s0,0,0,0a.19.19,0,0,0,0,.08s0,0,0,.05a.47.47,0,0,0-.06.09l-.13.2c-.05.07-.1.14-.14.21A.17.17,0,0,0,2.21,2h0l.09,0,.06.27a1.16,1.16,0,0,0,0,.18h0l0,0a.61.61,0,0,1-.07.1s-.12.07-.15.12h0l-.06,0L2,2.87A.2.2,0,0,0,2,3l0,0s0,0,0,0h0s0,0,.06.05h.18s0,0,0,0V3.06s0,0,0,0h0a.18.18,0,0,0-.07,0h0a0,0,0,0,1,0,0h0a1.24,1.24,0,0,0,.18-.14s.08-.1.14-.14.05,0,.06,0a.14.14,0,0,0,0-.09v0a.41.41,0,0,0,0-.19.57.57,0,0,1,0-.13l0,0,0,0,0,0,.07,0,.05,0a.26.26,0,0,1,0,.09.31.31,0,0,0,0,.09.6.6,0,0,0,0,.23,1.1,1.1,0,0,0,0,.26.15.15,0,0,0,0,.07H3s0,0,.05,0h.16a.05.05,0,0,0,0-.07A.12.12,0,0,0,3.19,3L3.12,3s0,0,0,0l0-.34,0-.12V2.41a.16.16,0,0,0,0-.09v0a.08.08,0,0,0,0,0L3,2.14,3,2a.32.32,0,0,0-.1-.13h0l0,0s0,0,0,0a.1.1,0,0,0,0,0,.17.17,0,0,0,0-.07H3c.08,0,.11.13.2.14a.09.09,0,0,0,.09-.05.2.2,0,0,0,0-.11.15.15,0,0,1,0-.07.49.49,0,0,0,0-.12s0-.05,0-.08h0l.1,0h0s.11,0,.16,0S3.67,1.36,3.65,1.36Zm-.43.19v.08h0l0,0a.07.07,0,0,1,0-.05l0,0s0,0,0,0S3.22,1.54,3.22,1.55Z"/><path class="cls-1" d="M5.23.63a0,0,0,0,0,0,0,0,0,0,0,0,0,0s0,0,0,0h0s0,0,0,0h0s0,0,0-.07H5s0,0,0,0v0h0L4.86.69,4.8.75h0a.2.2,0,0,1-.11,0h0s0,0,0,0l0,0h0s0,0,0-.06a.41.41,0,0,0,0-.08V.38h0a0,0,0,0,1,0,0h0A.49.49,0,0,0,4.63.29h0s-.08,0-.11,0h0s0,0,0,0l0,0s0,0,0,0a.34.34,0,0,0,0,.1s0,0,0,.05h0s-.08,0-.1,0h0s0,.07,0,.1,0,0,0,.06-.1.12-.12.18a.38.38,0,0,0,0,.15.64.64,0,0,0,0,.07.87.87,0,0,1,0,.32.47.47,0,0,0,0,.31.17.17,0,0,0,0,.07h0v0h0a.36.36,0,0,0,0,.1v.07a1.59,1.59,0,0,1-.07.48.19.19,0,0,0,0,.07.44.44,0,0,0,0,.16v.11s0,0,0,0L4,3V3H4a.06.06,0,0,0,0,0v0s0,0,0,0h.09s0,0,0,0l.1,0,.18,0s0,0,.06,0a0,0,0,0,0,0,0v0c.06,0,0-.08-.12-.09h0a.16.16,0,0,1,0-.09.75.75,0,0,1,0-.26.35.35,0,0,0,0-.13l0-.07a.5.5,0,0,0,0,.12.3.3,0,0,0,0,.1v.16a.2.2,0,0,0,0,.11h0s0,.06,0,.07h.12a.44.44,0,0,0,.16,0h.14a.12.12,0,0,0,.05,0v0a.12.12,0,0,0-.1-.07H4.75s-.08,0-.09,0,0-.07,0-.1a1.85,1.85,0,0,0,0-.23.61.61,0,0,1,0-.14v0a1.83,1.83,0,0,0,0-.33V1.84s0,0,.06,0h0V1.7s0,0,0,0l0,0s0,0,0-.07l0-.07a.17.17,0,0,1,0-.1v-.1s0,0,0,0l0,0a.34.34,0,0,0,.06-.06l.09-.15s0,0,0,0a0,0,0,0,0,0,0A.07.07,0,0,1,5,1H5s0,0,0,0a.5.5,0,0,1,0,.12s0,.06,0,.08,0,.06.06.06,0,0,0,0a0,0,0,0,0,0,0l0,0c0-.06,0-.14,0-.18S5.19.92,5.2.83v0h0a.09.09,0,0,1,0-.05h0a0,0,0,0,0,0,0s0,0,0,0,0,0,0,0ZM4.9.93s0,0,0,0-.06.06-.09.1l0,0h0v0l0-.05L4.8,1l0,0,0,0S4.91.92,4.9.93ZM5.17.85s0,0,0,.05,0,0,0,0a1,1,0,0,0,0,.17v.17a0,0,0,0,1,0,0h0v0a.08.08,0,0,1,0-.07V1.07s0,0,0,0h0a0,0,0,0,1,0,0S5,1,5,1H5v0l0,0,0,0s0,0,0-.07v0h0s0,0,0,0A.07.07,0,0,1,5.17.85Z"/><polygon class="cls-1" points="4.63 0.28 4.63 0.29 4.63 0.29 4.63 0.28"/><path class="cls-1" d="M6.9,3a.38.38,0,0,1-.1,0,.27.27,0,0,1-.07-.08.71.71,0,0,1-.05-.29,0,0,0,0,0,0,0,1.06,1.06,0,0,0,0-.25,2,2,0,0,1,0-.24.35.35,0,0,1,0-.07s0-.1,0-.15a.4.4,0,0,0,0-.15s0,0,0,0h0c0-.06,0-.11,0-.16a.45.45,0,0,0-.06-.12.43.43,0,0,0,0,0l0,0s0,0,0-.06l0-.14a.31.31,0,0,1,0-.1l.06,0h.06a.16.16,0,0,0,0-.1.44.44,0,0,0,0-.16s0-.05,0-.08a.53.53,0,0,1,0-.25v0h.21a0,0,0,0,0,0,0L6.72.4h0s0,0,0,0a.06.06,0,0,0,0,0h0l0,0h0s0,0,0,0H6.69l-.05,0H6.55a0,0,0,0,1,0,0,0,0,0,0,0,0-.05h0s0-.07,0-.1h0a.09.09,0,0,0,0,0,.18.18,0,0,0-.07,0H6.24a.15.15,0,0,0-.09,0H6.1L6,.11A.08.08,0,0,0,6,.16v0l0,0A.09.09,0,0,0,6,.27l0,0A.15.15,0,0,1,6,.38.08.08,0,0,1,6,.42H5.91a.15.15,0,0,0-.13.09.48.48,0,0,0,0,.35s0,.09,0,.13a.36.36,0,0,0,0,.09s0,0,0,0h0a.58.58,0,0,1,0,.19.74.74,0,0,0,0,.39s0,.05,0,.06l0,0a1.27,1.27,0,0,0,0,.2c0,.17-.11.32-.1.49a1.13,1.13,0,0,0,0,.18.79.79,0,0,1,0,.22l0,.14V3.1h0l.07,0H6a.07.07,0,0,0,.06,0h.1s0,0,0,0,0,0,0,0a.1.1,0,0,1,0,0,1.29,1.29,0,0,1,0-.28,1.64,1.64,0,0,1,0-.22.79.79,0,0,0,0-.13.31.31,0,0,0,0-.1h0l0-.06A.43.43,0,0,0,6.19,2l.06-.07,0,.05h0a.32.32,0,0,1,0,.09l.07.19a.2.2,0,0,0,0,.08h0l0,.11v0a1.12,1.12,0,0,0,0,.32A.71.71,0,0,0,6.55,3h0v.08l.06,0H6.7A1.1,1.1,0,0,0,7,3.1.09.09,0,0,0,6.9,3ZM6.41,1h0s0,0,0,0h0S6.41,1,6.41,1Zm0-.45a0,0,0,0,1,0-.05h0s.05,0,.06,0,0,0,0,0,0,0,0,0h0S6.41.54,6.41.53Z"/><text class="cls-2" transform="translate(0.24 4.16)">FOUR LENSMEN<tspan class="cls-3"><tspan x="1.27" y="0.49">PRODUCTIONS</tspan></tspan></text></g></g></svg>