<svg xmlns="http://www.w3.org/2000/svg" viewBox="0 0 7.03 4.72"><defs><style>.cls-1{fill:#b7b7b7;}</style></defs><g id="Layer_2" data-name="Layer 2"><g id="Layer_1-2" data-name="Layer 1"><path class="cls-1" d="M1.34,3.22S1.47,3,1.47,3a.28.28,0,0,1,0-.08h.07v0a0,0,0,0,0,0,0h0a0,0,0,0,0,0,0v-.1a0,0,0,0,0,0,0h0a0,0,0,0,0,0,0v0H1.46a.91.91,0,0,1,0-.17h.08v0a0,0,0,0,0,0,0h0a0,0,0,0,0,0,0v-.1a0,0,0,0,0,0,0h0a0,0,0,0,0,0,0v0H1.45V2.49h.07v0l0,0h0l0,0v-.1a0,0,0,0,0,0,0h0a0,0,0,0,0,0,0v0H1.46c0-.15.08-.27.08-.29s0,0,0,0a.35.35,0,0,1-.14,0,.21.21,0,0,0-.16,0,.21.21,0,0,0-.16,0,.44.44,0,0,1-.14,0s0,0,0,0A2.39,2.39,0,0,1,1,2.45H.89v0a0,0,0,0,0,0,0h0a0,0,0,0,0,0,0v.1a0,0,0,0,0,0,0h0l0,0v0H1v0a.61.61,0,0,1,0,.14H.89v0a0,0,0,0,0,0,0h0a0,0,0,0,0,0,0v.1a0,0,0,0,0,0,0h0a0,0,0,0,0,0,0v0H1c0,.06,0,.12,0,.17H.89v0a0,0,0,0,0,0,0h0a0,0,0,0,0,0,0v.1a0,0,0,0,0,0,0h0a0,0,0,0,0,0,0v0H1A.45.45,0,0,0,1,3a2.42,2.42,0,0,1,.12.23v.47H0L1.16,1l0-.08,0,0v0l0,.05,1.18,2.7H1.34Z"/><path class="cls-1" d="M4.09,3.69H7l-.65-1a.75.75,0,0,0,.33-.35,1,1,0,0,0,.11-.48.86.86,0,0,0-.28-.69A1.17,1.17,0,0,0,5.73.91H4.21V1.1a1.43,1.43,0,0,1,.44.51,1.89,1.89,0,0,1,.17.78,1.52,1.52,0,0,1-.21.8A1.55,1.55,0,0,1,4.09,3.69ZM5.92,2.35H5.29A.27.27,0,0,1,5,2.16h.42a.08.08,0,0,0,.09-.08v0h.38ZM5,1.4h.63a.28.28,0,0,1,.28.27v0H5.54a.09.09,0,0,0-.09-.09H5Zm0,.43h.44a.09.09,0,0,0,.09-.08v0h.38V2H5.54a.08.08,0,0,0-.09-.08H5Z"/><path class="cls-1" d="M4.65,2.35a1.39,1.39,0,0,1-.19.71A1.35,1.35,0,0,1,4,3.53a1.5,1.5,0,0,1-.7.16H2.62L1.41.91h1.7a1.93,1.93,0,0,1,.67.1V2.13a.57.57,0,0,0-.57.11c-.25.19-.34.47-.21.64a.49.49,0,0,0,.67,0c.24-.18.34-.46.22-.63V0L4,0a.76.76,0,0,1,.51.61A.93.93,0,0,0,4,.28v.86a1.29,1.29,0,0,1,.45.51A1.53,1.53,0,0,1,4.65,2.35Z"/><path class="cls-1" d="M.53,4.33a.2.2,0,0,1-.09.09.33.33,0,0,1-.15,0H.18v.26H0V4H.29A.33.33,0,0,1,.44,4a.24.24,0,0,1,.09.08.28.28,0,0,1,0,.13A.2.2,0,0,1,.53,4.33Zm-.18,0a.07.07,0,0,0,0-.06.08.08,0,0,0,0-.07.08.08,0,0,0-.07,0H.18v.19h.1A.08.08,0,0,0,.35,4.28Z"/><path class="cls-1" d="M1.09,4.71.94,4.44h0v.27H.71V4H1a.32.32,0,0,1,.14,0,.39.39,0,0,1,.1.08.27.27,0,0,1,0,.12.21.21,0,0,1-.05.13.15.15,0,0,1-.12.08l.17.29Zm-.2-.4H1l.08,0a.13.13,0,0,0,0-.14.15.15,0,0,0-.08,0H.89Z"/><path class="cls-1" d="M1.6,4.67a.35.35,0,0,1-.14-.13.42.42,0,0,1-.05-.2.41.41,0,0,1,.05-.19A.35.35,0,0,1,1.6,4a.32.32,0,0,1,.19,0A.32.32,0,0,1,2,4a.27.27,0,0,1,.13.13.32.32,0,0,1,.05.19.33.33,0,0,1-.05.2A.27.27,0,0,1,2,4.67a.32.32,0,0,1-.19,0A.32.32,0,0,1,1.6,4.67Zm.33-.17A.25.25,0,0,0,2,4.34a.25.25,0,0,0-.05-.15.18.18,0,0,0-.14-.06.17.17,0,0,0-.14.06.2.2,0,0,0-.06.15.21.21,0,0,0,.06.16.17.17,0,0,0,.14.06A.18.18,0,0,0,1.93,4.5Z"/><path class="cls-1" d="M2.91,4.7a.21.21,0,0,1-.1-.08.29.29,0,0,1-.05-.13H3a.14.14,0,0,0,0,.07l.07,0,.06,0a.08.08,0,0,0,0,0,.06.06,0,0,0,0,0l0,0L3,4.41l-.11,0A.16.16,0,0,1,2.8,4.3a.2.2,0,0,1,0-.11A.19.19,0,0,1,2.84,4,.31.31,0,0,1,3,4a.3.3,0,0,1,.2.06.19.19,0,0,1,.08.16H3.12a.07.07,0,0,0,0-.06L3,4.11l0,0s0,0,0,0a.05.05,0,0,0,0,.05l.1,0,.12,0a.27.27,0,0,1,.08.07.18.18,0,0,1,0,.11.2.2,0,0,1,0,.11.24.24,0,0,1-.09.08.37.37,0,0,1-.15,0Z"/><path class="cls-1" d="M4.09,4l-.26.49v.24H3.65V4.47L3.4,4h.2l.14.31L3.88,4Z"/><path class="cls-1" d="M4.32,4.7a.39.39,0,0,1-.1-.08.28.28,0,0,1,0-.13h.19a.09.09,0,0,0,0,.07l.06,0,.07,0a.08.08,0,0,0,0,0s0,0,0,0l0,0-.07,0-.12,0a.13.13,0,0,1-.07-.06.15.15,0,0,1,0-.11A.19.19,0,0,1,4.26,4,.29.29,0,0,1,4.45,4a.32.32,0,0,1,.2.06.23.23,0,0,1,.08.16h-.2a.11.11,0,0,0,0-.06l-.07,0-.05,0a.08.08,0,0,0,0,0,.05.05,0,0,0,0,.05l.1,0,.12,0a.23.23,0,0,1,.07.07.18.18,0,0,1,0,.11.21.21,0,0,1,0,.11.24.24,0,0,1-.09.08.32.32,0,0,1-.14,0Z"/><path class="cls-1" d="M5.42,4v.14h-.2v.59H5V4.12H4.85V4Z"/><path class="cls-1" d="M5.75,4.12v.15H6v.14H5.75v.16H6v.14H5.57V4H6v.14Z"/><path class="cls-1" d="M7,4v.73H6.85V4.27l-.16.44H6.54l-.16-.44v.44H6.2V4h.21l.2.51L6.82,4Z"/></g></g></svg>