<svg xmlns="http://www.w3.org/2000/svg" viewBox="0 0 8.45 4.06"><defs><style>.cls-1{fill:#b7b7b7;}</style></defs><g id="Layer_2" data-name="Layer 2"><g id="Layer_1-2" data-name="Layer 1"><polygon class="cls-1" points="1.09 3.38 0.93 3.17 0.81 3.17 0.81 3.74 0.94 3.74 0.94 3.39 1.09 3.58 1.24 3.39 1.24 3.74 1.37 3.74 1.37 3.17 1.25 3.17 1.09 3.38"/><path class="cls-1" d="M1.94,3.49a.11.11,0,0,1,0,.1.12.12,0,0,1-.09,0,.11.11,0,0,1-.08,0,.13.13,0,0,1,0-.1V3.17H1.57v.32a.23.23,0,0,0,.07.18.21.21,0,0,0,.17.07A.21.21,0,0,0,2,3.67a.23.23,0,0,0,.07-.18V3.17H1.94Z"/><path class="cls-1" d="M2.64,3.44l-.06,0H2.51l-.06,0-.05,0h0v0h0s0,0,0,0a.17.17,0,0,1,.1,0c.05,0,.06,0,.06,0v0H2.7v0a.19.19,0,0,0-.07-.12.24.24,0,0,0-.17-.06.25.25,0,0,0-.16,0,.15.15,0,0,0-.06.13.11.11,0,0,0,0,.09l.07,0,.09,0,.08,0,0,0s0,0,0,0,0,.05-.1.05-.07,0-.09,0,0,0,0-.05v0H2.22v0a.15.15,0,0,0,.06.13.29.29,0,0,0,.19.05.27.27,0,0,0,.16,0,.15.15,0,0,0,.07-.13A.17.17,0,0,0,2.64,3.44Z"/><rect class="cls-1" x="2.88" y="3.17" width="0.12" height="0.57"/><path class="cls-1" d="M3.39,3.3h.08a.08.08,0,0,1,.07,0,.1.1,0,0,1,0,.06v0h.13l0-.05a.24.24,0,0,0-.09-.13.31.31,0,0,0-.17,0,.25.25,0,0,0-.2.09.27.27,0,0,0-.07.2.3.3,0,0,0,.07.21.24.24,0,0,0,.2.08.25.25,0,0,0,.17-.05.22.22,0,0,0,.09-.12l0,0H3.6v0a.1.1,0,0,1,0,.06l-.07,0a.14.14,0,0,1-.13-.05.2.2,0,0,1,0-.24Z"/><path class="cls-1" d="M4.57,3.44l-.06,0H4.44l-.06,0,0,0h0v0h0s0,0,0,0a.21.21,0,0,1,.11,0,.06.06,0,0,1,0,0v0h.12v0a.14.14,0,0,0-.06-.12.24.24,0,0,0-.17-.06.29.29,0,0,0-.17,0,.15.15,0,0,0,0,.22l.07,0,.09,0,.08,0,.06,0v0s0,.05-.11.05-.07,0-.09,0a0,0,0,0,1,0-.05v0H4.16v0a.19.19,0,0,0,.07.13.24.24,0,0,0,.18.05.31.31,0,0,0,.17,0,.16.16,0,0,0,.06-.13A.15.15,0,0,0,4.57,3.44Z"/><polygon class="cls-1" points="4.76 3.29 4.93 3.29 4.93 3.74 5.06 3.74 5.06 3.29 5.23 3.29 5.23 3.17 4.76 3.17 4.76 3.29"/><path class="cls-1" d="M5.75,3.49a.11.11,0,0,1,0,.1.11.11,0,0,1-.08,0,.14.14,0,0,1-.09,0,.13.13,0,0,1,0-.1V3.17H5.38v.32a.27.27,0,0,0,.07.18.27.27,0,0,0,.36,0,.27.27,0,0,0,.07-.18V3.17H5.75Z"/><path class="cls-1" d="M6.42,3.19l-.1,0H6.08v.57h.24l.1,0a.24.24,0,0,0,.09-.06.29.29,0,0,0,.08-.21.28.28,0,0,0-.08-.2A.24.24,0,0,0,6.42,3.19Zm-.22.43V3.29h.12a.12.12,0,0,1,.1,0,.15.15,0,0,1,0,.11.16.16,0,0,1,0,.12h0a.12.12,0,0,1-.1.05Z"/><rect class="cls-1" x="6.76" y="3.17" width="0.12" height="0.57"/><path class="cls-1" d="M7.56,3.25a.29.29,0,0,0-.21-.09.26.26,0,0,0-.21.09.28.28,0,0,0-.08.2.3.3,0,0,0,.08.21.25.25,0,0,0,.21.08.28.28,0,0,0,.21-.08.3.3,0,0,0,.08-.21A.28.28,0,0,0,7.56,3.25Zm-.21,0a.16.16,0,0,1,.12,0,.17.17,0,0,1,0,.12.16.16,0,0,1,0,.12.17.17,0,0,1-.24,0,.17.17,0,0,1-.05-.12.18.18,0,0,1,.05-.12A.16.16,0,0,1,7.35,3.29Z"/><path class="cls-1" d="M8.36,3.36,8.12,3a.52.52,0,0,0-.19-.17h0a.34.34,0,0,0-.18,0H5.44a0,0,0,0,0,0,0v0h0s0,0,0,0v0H5.13l0,0h0l0,0,.06,0s0,0,0,0h.18s0,0,0,0,0,0,0,0h0v0s0,0,0,0h.27a.1.1,0,0,0,0,0h2A.28.28,0,0,1,8,3l.24.37a.44.44,0,0,1,.08.15.09.09,0,0,1,0,.05.35.35,0,0,1,0,.14A.27.27,0,0,1,8,3.9H.38a.32.32,0,0,1-.09,0A.27.27,0,0,1,.21,3.8a.23.23,0,0,1,0-.25c.07-.15.14-.31.22-.46A.15.15,0,0,1,.45,3,.19.19,0,0,1,.54,3h0L.62,3H4.41l.16,0,.09,0a.8.8,0,0,0,.21-.15.67.67,0,0,0,.18-.33.61.61,0,0,0,0-.13s0-.06,0-.07l0,0A.74.74,0,0,0,5.25,2,1.25,1.25,0,0,0,5.5,1.4a1.43,1.43,0,0,0,0-.41A1.31,1.31,0,0,0,5.19.43.84.84,0,0,0,5,.28L4.91.22h0A1,1,0,0,0,4.56.1H3.2V.34H4.53a.83.83,0,0,1,.58.42A1.08,1.08,0,0,1,5.19,1V1a.29.29,0,0,0,0,.09,1.85,1.85,0,0,1,0,.23.88.88,0,0,1,0,.17,1.09,1.09,0,0,1-.1.25h0a.77.77,0,0,1-.34.33,1.15,1.15,0,0,1-.45.11H3.2v.26H4.28a1.84,1.84,0,0,0,.33,0l.15-.05h0l.12,0h0s0,0,0,0a.35.35,0,0,1,0,.11l-.08.13a.61.61,0,0,1-.49.22H.53A.36.36,0,0,0,.26,3c-.08.17-.17.33-.24.5H0a.35.35,0,0,0,0,.2.4.4,0,0,0,.36.33H8a.2.2,0,0,0,.11,0h0a.3.3,0,0,0,.13-.09.48.48,0,0,0,.13-.3A.44.44,0,0,0,8.36,3.36Zm-2.9-.43h0Zm0,0ZM4.89.36Zm0,0ZM5,2.2H5l0,0Zm-.4.64ZM8.12,4h0Z"/><path class="cls-1" d="M5.84.39H7a.43.43,0,0,1,.16,0,.36.36,0,0,1,.17.2v0a.38.38,0,0,1,0,.21A.5.5,0,0,1,7.3,1a.33.33,0,0,1-.12.14.4.4,0,0,1-.26.08H5.85V2.45h.31s0,0,0,0V1.53h.61s0,0,0,0c.16.3.31.6.47.89v0h.35v0a1.28,1.28,0,0,0-.11-.2l-.36-.69a.05.05,0,0,1,0,0l.06,0h0a.56.56,0,0,0,.2-.11.38.38,0,0,0,.09-.09A.71.71,0,0,0,7.64.68.7.7,0,0,0,7.49.34.49.49,0,0,0,7.3.18.63.63,0,0,0,7,.09H5.83V.37h0A.23.23,0,0,0,5.9.31a.23.23,0,0,1-.07.07S5.83.4,5.84.39Zm1.31,1Z"/><path class="cls-1" d="M.51,2.46H.82s0,0,0,0c.11-.22.21-.45.32-.67h1s0,0,0,0l.06.13.24.53h.31s0,0,0,0l-.46-1L1.75.18A.89.89,0,0,1,1.67,0h0L1.5.32v0L1.8,1c.07.15.14.3.2.45H1s0,0,0,0c-.14.27-.27.55-.4.83l-.05.12S.5,2.46.51,2.46Z"/><path class="cls-1" d="M2.92.89a.27.27,0,0,0,.23.18H3.5a.13.13,0,0,0,.08,0h0a.24.24,0,0,0,.15-.2.88.88,0,0,0,0-.23.12.12,0,0,0-.06-.1H3a.13.13,0,0,0-.12.09.08.08,0,0,0,0,0V.8a.06.06,0,0,0,0,0A.09.09,0,0,0,2.92.89Z"/><path class="cls-1" d="M2.91,2a.12.12,0,0,0,.11.1h.65a.12.12,0,0,0,.08-.12.6.6,0,0,0,0-.19A.25.25,0,0,0,3.6,1.5l-.1,0H3.16a.26.26,0,0,0-.24.18.19.19,0,0,0,0,.08v.18A0,0,0,0,0,2.91,2Z"/></g></g></svg>