<svg xmlns="http://www.w3.org/2000/svg" viewBox="0 0 5.99 3.77"><defs><style>.cls-1{fill:#b7b7b7;}</style></defs><g id="Layer_2" data-name="Layer 2"><g id="Layer_1-2" data-name="Layer 1"><path class="cls-1" d="M4,1.11H4l0,0,0,0,0-.05L4.5,0h.14L5,1l0,.06,0,0H4.68s0,0,0,0,0,0,0-.06L4.64.76H4.28L4.2,1a.13.13,0,0,0,0,.06s0,0,0,0l0,0H4ZM4.29.73h.34L4.47.22Z"/><path class="cls-1" d="M5.65,1.14a.65.65,0,0,1-.29-.06.51.51,0,0,1-.21-.2A.57.57,0,0,1,5.08.57a.66.66,0,0,1,0-.25A.83.83,0,0,1,5.25.14.52.52,0,0,1,5.43,0a.57.57,0,0,1,.22,0l.18,0L6,.08v.2H6L5.88.15l0-.06s0,0,0,0l0,0H5.69a.34.34,0,0,0-.17.05.33.33,0,0,0-.13.17.93.93,0,0,0,0,.32.89.89,0,0,0,0,.32.32.32,0,0,0,.12.17.34.34,0,0,0,.17.05h.08l.07,0a.08.08,0,0,0,0,0s0,0,0-.05L6,.83H6v.23l-.16.06Z"/><path class="cls-1" d="M5.09,2.91a.79.79,0,0,1-.3-.05.94.94,0,0,1-.26-.14.61.61,0,0,1-.17-.24.74.74,0,0,1-.07-.34.72.72,0,0,1,.07-.33.81.81,0,0,1,.17-.24,1.35,1.35,0,0,1,.26-.15.93.93,0,0,1,.6,0,.64.64,0,0,1,.25.15.55.55,0,0,1,.18.24.7.7,0,0,1,.07.33.74.74,0,0,1-.07.34.69.69,0,0,1-.18.24.77.77,0,0,1-.25.14A.79.79,0,0,1,5.09,2.91Zm0-.06a.33.33,0,0,0,.23-.07.32.32,0,0,0,.13-.22,1.5,1.5,0,0,0,0-.42,1.47,1.47,0,0,0,0-.41.32.32,0,0,0-.13-.22.41.41,0,0,0-.46,0,.32.32,0,0,0-.13.22,1.47,1.47,0,0,0-.05.41,1.5,1.5,0,0,0,.05.42.32.32,0,0,0,.13.22A.33.33,0,0,0,5.09,2.85Z"/><path class="cls-1" d="M0,2.92H1.3A.78.78,0,0,1,.7,2.2V1.9H.62S.72,2.77,0,2.92Z"/><path class="cls-1" d="M2.06,2.92l.38-1L1.42,0H.23V.1S.4,0,.82.76,2.06,2.92,2.06,2.92Z"/><path class="cls-1" d="M3.1,0V2.81a.59.59,0,0,1-.23.11H4.15s-.24-.07-.25-.14V.2s0,0,0-.07l0,0L4,.08h.07V0Z"/><path class="cls-1" d="M.39,3.62s0,0,0-.05l-.08,0L.2,3.5a.15.15,0,0,1-.09-.14.1.1,0,0,1,0-.07A.2.2,0,0,1,.2,3.23l.11,0,.1,0,.07.06a.15.15,0,0,1,0,.09H.39a.07.07,0,0,0,0-.06L.3,3.3l-.06,0,0,0a.08.08,0,0,0,0,.05l.08,0a.45.45,0,0,1,.14.07.15.15,0,0,1,0,.11.12.12,0,0,1,0,.11.2.2,0,0,1-.14,0l-.12,0a.16.16,0,0,1-.07-.07.12.12,0,0,1,0-.09H.2c0,.06,0,.09.11.09H.37A.06.06,0,0,0,.39,3.62Z"/><path class="cls-1" d="M1.86,3.31H1.7v.45H1.58V3.31H1.42V3.22h.44Z"/><path class="cls-1" d="M3.21,3.5a.29.29,0,0,1,0,.14.27.27,0,0,1-.08.1L3,3.77a.21.21,0,0,1-.12,0,.16.16,0,0,1-.08-.1.28.28,0,0,1,0-.13v0a.32.32,0,0,1,0-.14.18.18,0,0,1,.08-.09.16.16,0,0,1,.12,0,.19.19,0,0,1,.12,0,.24.24,0,0,1,.08.09.32.32,0,0,1,0,.14Zm-.11,0a.23.23,0,0,0,0-.13.11.11,0,0,0-.09,0,.1.1,0,0,0-.09,0,.23.23,0,0,0,0,.13v0a.23.23,0,0,0,0,.13.11.11,0,0,0,.18,0,.21.21,0,0,0,0-.12Z"/><path class="cls-1" d="M4.36,3.56H4.27v.2H4.16V3.22h.2a.24.24,0,0,1,.15,0,.17.17,0,0,1,0,.12.17.17,0,0,1,0,.1.22.22,0,0,1-.07.06l.12.22H4.46Zm-.09-.09h.09s0,0,.06,0a.06.06,0,0,0,0-.06.09.09,0,0,0,0-.06l-.06,0H4.27Z"/><path class="cls-1" d="M5.82,3.53H5.61v.14h.25v.09H5.49V3.22h.37v.09H5.61v.13h.21Z"/></g></g></svg>