<svg xmlns="http://www.w3.org/2000/svg" viewBox="0 0 3.94 5.68"><defs><style>.cls-1{fill:#b7b7b7;}</style></defs><g id="Layer_2" data-name="Layer 2"><g id="Layer_1-2" data-name="Layer 1"><path class="cls-1" d="M1.65,2.63H2.7a.78.78,0,0,1,.63.31.68.68,0,0,1,.14.46.67.67,0,0,1-.31.54l0,0h0l0,0a1,1,0,0,1,.3.21.89.89,0,0,1,.22.43.83.83,0,0,1-.16.66A.94.94,0,0,1,3,5.65l-.24,0H1.65V4.08H.23l0,0c.3-.45.6-.9.89-1.35s.63-.95.94-1.42l0-.05H.37L.43,1H.51s0,0,0,0a0,0,0,0,0,0-.05A.17.17,0,0,0,.46.87.35.35,0,0,1,.22.65.64.64,0,0,1,.2.58h0v0h0a0,0,0,0,1,0,0A.31.31,0,0,0,.56.84.33.33,0,0,0,.87.58V.52h0a.49.49,0,0,1-.17,0h0s0,0,0,0,0,0,0,0H.86a.27.27,0,0,1,0-.09A.2.2,0,0,1,1.05.21a.21.21,0,0,1,.21.16.17.17,0,0,1,0,.1h0s0,0,0,0a0,0,0,0,0,0,0l-.05,0,0,0H1.06s0,0-.07,0H1A.2.2,0,0,1,1.22.6a.2.2,0,0,1-.15.23H1s0,0,0,0A.12.12,0,0,0,1.05.7.16.16,0,0,0,1,.53h0s0,0,0,0v0A.34.34,0,0,1,.69.85s0,0,0,0,0,0,0,0L.63,1,.66,1h1.8s0,0,0,0,0,0,0,0L1.24,2.89l-.64,1v0H1.65Zm.73,2.85h0A.45.45,0,0,1,2.06,5V5s0,0,0,0,0,0,0,0V5a.41.41,0,0,0,.5.42.42.42,0,0,0,.31-.51l0,0-.61-.18h0a.44.44,0,0,0-.08.11l0,0h0s0,0,0,0h0a.37.37,0,0,1,.13-.15s0,0,0,0l.09,0h0V4.58H2.31l-.18,0s0,0,0,0,0,0,0,0l.23-.2s0,0,0,0l.29.15h0s0,0,0,0h0l-.22,0s0,0,0,0,0,.07,0,.1a0,0,0,0,0,0,0l.16,0h0a.13.13,0,0,1,0-.1.1.1,0,0,1,.09,0l0,0s0,0,0,0,0,0,0,0,0,0,0,0,0,0,0,0l0,0,0,0,0,0,0,0,.23-.05s0,0,0,0,0,0,0,.06,0,0,0,0L3,4.73l0,0-.07.09h0s0,0,.05,0a.74.74,0,0,1,0,.21.44.44,0,0,1-.29.35l0,0h.19a.76.76,0,0,0,.52-.27.63.63,0,0,0,.11-.67.71.71,0,0,0-.3-.34.72.72,0,0,0-.4-.12H1.88s0,0,0,0V5.48A3.24,3.24,0,0,0,2.38,5.48ZM1.84,3.89h.9a.61.61,0,0,0,.42-.21.46.46,0,0,0,.11-.45.51.51,0,0,0-.21-.29.55.55,0,0,0-.35-.12H1.88s0,0,0,0v1Zm1.31.72-.2,0,0,0-.1.14v0s0,0,.05,0l.07-.1,0,0,.08,0,.09,0Zm-.42.07s0,0,0,.06,0,.06,0,.06a.05.05,0,0,0,.07,0,0,0,0,0,0,0-.07S2.74,4.71,2.73,4.68ZM2.3,4.52l0-.11a.51.51,0,0,0-.13.12Zm.28,0h0l-.14-.08s0,0,0,.08h.1Zm-.14,0L2.37,4.4l0,.11ZM.57.88l0,0s0,0,0,0ZM.59,1h0s0,0,0,0V1Z"/><path class="cls-1" d="M2.54,2a.74.74,0,0,1,.2-.87.73.73,0,0,1,1,1,.71.71,0,0,1-.88.21l0,0H3l.12,0a.55.55,0,0,0,.18,0,.65.65,0,0,0,.2-.05.69.69,0,0,0,.33-.28.5.5,0,0,0,.08-.27.66.66,0,0,0-.12-.47.64.64,0,0,0-.39-.25.62.62,0,0,0-.53.09.69.69,0,0,0-.29.44.63.63,0,0,0,0,.36s0,0,0,.06Z"/><path class="cls-1" d="M.32,4.4H.38l0,0a1.74,1.74,0,0,1-.11.18l0,0h0a.36.36,0,0,1,.15,0,.32.32,0,0,1,.21.24.37.37,0,0,1,0,.25.28.28,0,0,1-.44.08A.3.3,0,0,1,0,5a.46.46,0,0,1,.05-.21l.12-.17ZM.56,5a.27.27,0,0,0-.09-.2.23.23,0,0,0-.28,0,.29.29,0,0,0,0,.46.26.26,0,0,0,.3,0A.3.3,0,0,0,.56,5Z"/><path class="cls-1" d="M1,5.31l.17-.25h0a.32.32,0,0,1-.34-.17.37.37,0,0,1,.07-.41.29.29,0,0,1,.22-.08.3.3,0,0,1,.27.21.35.35,0,0,1,0,.33l-.15.22a.44.44,0,0,1-.08.11h0A.07.07,0,0,1,1,5.31ZM1,5a.25.25,0,0,0,.15,0,.3.3,0,0,0,0-.46.24.24,0,0,0-.28,0,.29.29,0,0,0-.09.35A.25.25,0,0,0,1,5Z"/><path class="cls-1" d="M.25.33h0s0-.07,0-.1l0,0,0,0a0,0,0,0,1,0,0,0,0,0,0,1,0,0,.32.32,0,0,1,.09,0h0S.35,0,.4,0,.46,0,.5,0h0S.59.06.59.09l0,0a.08.08,0,0,1,0,.13,0,0,0,0,0,0,0,.25.25,0,0,0,0,.08A.15.15,0,0,0,.6.46h0s0,0,0,0,0,0,0,0A.16.16,0,0,1,.51.41.25.25,0,0,1,.5.33a.44.44,0,0,1,0-.1s0,0,0,0A.08.08,0,0,0,.44.12a.07.07,0,0,0-.07.1s0,0,0,.06A.3.3,0,0,0,.23.5v0s0,0,0,0h0s0,0,0-.05a.21.21,0,0,1,0-.11Zm0-.17,0,0v0h0Z"/><path class="cls-1" d="M.35.56l0,0a.11.11,0,0,1,.11,0l0,0s0,0,0,0h0A.62.62,0,0,0,.75.65h0s0,0,0,0,0,0,0,0,0,0,0,0A.43.43,0,0,1,.4.75.15.15,0,0,1,.3.6.16.16,0,0,1,.39.46h0s0,0,0,0L.35.54Z"/><path class="cls-1" d="M2.72,1.72l0,.14h0l0-.24h0l.08.17.09-.17c0,.08,0,.16,0,.24h0l0-.14s0,.09-.08.14,0-.1-.07-.14Z"/><path class="cls-1" d="M3.16,1.86h0l.05-.24h0l.08.17.09-.17c0,.08,0,.16.05.24h0l0-.14a0,0,0,0,0,0,0l0,.09s0,0,0,0L3.2,1.72h0v0l0,.1Z"/><path class="cls-1" d="M3,1.86V1.62h.15v0H3s0,0,0,0v0H3.1v0h0s-.05,0-.07,0,0,0,0,0v.08a.48.48,0,0,0,.12,0v0Z"/><path class="cls-1" d="M3.58,1.62v0H3.49s0,0,0,0v0h.11v0h0s0,0-.07,0,0,0,0,0v.07a.48.48,0,0,0,.12,0v0H3.44V1.62Z"/><path class="cls-1" d="M3.61,1.78h0s0,0,0,0a.06.06,0,0,0,.09,0s0,0,0-.05l0,0,0,0a.05.05,0,0,1,0-.05s0,0,.05,0a.07.07,0,0,1,.08,0h0v0l0,0s0,0,0,0a0,0,0,0,0,0,0l0,0,0,0a.06.06,0,0,1,0,.09.08.08,0,0,1-.09,0A.1.1,0,0,1,3.61,1.78Z"/><path class="cls-1" d="M.43.18a0,0,0,0,1,0,0,0,0,0,0,1,0,0h0S.43.17.43.18Z"/><path class="cls-1" d="M2.52,5.39h0l0,0a0,0,0,0,1,0,0h0a.32.32,0,0,0,.2-.08h0a0,0,0,0,1,0,0h0A.33.33,0,0,1,2.52,5.39Z"/><path class="cls-1" d="M2.43,5.33l0,0a0,0,0,0,1,0,0s0,0,0,0S2.41,5.33,2.43,5.33Z"/><path class="cls-1" d="M2.1,4.89s0,0,0,0l0,0a0,0,0,0,1,0,0S2.09,4.89,2.1,4.89Z"/></g></g></svg>