<?xml version="1.0" encoding="utf-8"?>
<!-- Generator: Adobe Illustrator 24.0.1, SVG Export Plug-In . SVG Version: 6.00 Build 0)  -->
<svg version="1.1" xmlns="http://www.w3.org/2000/svg" xmlns:xlink="http://www.w3.org/1999/xlink" x="0px" y="0px"
	 viewBox="0 0 25 25" style="enable-background:new 0 0 25 25;" xml:space="preserve">
<g id="Layer_2">
</g>
<g id="Layer_1">
	<g>
		<path d="M15.6,19.4H9.4c-0.2,0-0.4,0.2-0.4,0.4v1.9c0,0.2,0.2,0.4,0.4,0.4h6.2c0.2,0,0.4-0.2,0.4-0.4v-1.9
			C16,19.6,15.8,19.4,15.6,19.4z"/>
		<path d="M13.4,8.2c-0.1-0.1-0.2-0.2-0.2-0.3L13,7.8v4.7l0.1,0c0.5,0.2,0.8,0.7,0.8,1.2c0,0.7-0.6,1.3-1.3,1.3s-1.3-0.6-1.3-1.3
			c0-0.5,0.3-1,0.8-1.2l0.1,0V7.9L11.9,8c-0.1,0.1-0.2,0.2-0.3,0.3l-3,5.2c-0.2,0.3-0.3,0.7-0.2,1.1l0.7,3.6c0,0.1,0.2,0.3,0.3,0.3
			h6c0.2,0,0.3-0.1,0.3-0.3l0.7-3.6c0.1-0.4,0-0.7-0.2-1.1L13.4,8.2z"/>
		<path d="M23.1,6.2c0.9,0,1.7-0.7,1.7-1.7S24,2.8,23.1,2.8c-0.7,0-1.2,0.4-1.5,1h-7.4v-1h-3.3v1H3.4c-0.3-0.6-0.9-1-1.5-1
			C1,2.8,0.3,3.6,0.3,4.5S1,6.2,1.9,6.2c0.7,0,1.2-0.4,1.5-1h3.9c-2.6,1.5-4.5,4.1-4.9,7.2H1.3v3.3h3.3v-3.3H3.8
			c0.7-3.5,3.5-6.3,7-7v0.8h3.3V5.4c3.6,0.7,6.3,3.5,7,7h-0.8v3.3h3.3v-3.3h-1.1c-0.5-3.1-2.4-5.7-4.9-7.2h3.9
			C21.8,5.8,22.4,6.2,23.1,6.2z"/>
	</g>
</g>
</svg>
