<svg xmlns="http://www.w3.org/2000/svg" viewBox="0 0 132.92 132.92"><title>design</title><g id="Layer_2" data-name="Layer 2"><g id="Layer_1-2" data-name="Layer 1"><path d="M129,0H113.19a3.89,3.89,0,0,0-3.89,3.89v3.9H77.43a11.62,11.62,0,0,0-21.94,0H23.62V3.89A3.89,3.89,0,0,0,19.73,0H3.89A3.89,3.89,0,0,0,0,3.89V19.47a3.89,3.89,0,0,0,3.89,3.89H19.73a3.89,3.89,0,0,0,3.89-3.89V15.52h16A50.8,50.8,0,0,0,16.13,55.4a11.65,11.65,0,1,0,7.77.18A42.74,42.74,0,0,1,56.12,17,11.59,11.59,0,0,0,76.8,17,42.74,42.74,0,0,1,109,55.58a11.71,11.71,0,1,0,7.77-.18A50.67,50.67,0,0,0,93.3,15.58h16v3.89a3.89,3.89,0,0,0,3.89,3.89H129a3.89,3.89,0,0,0,3.89-3.89V3.89A3.89,3.89,0,0,0,129,0Z"/><path d="M93,128.09a15.83,15.83,0,0,0-14.81-11H54.78a15.83,15.83,0,0,0-14.81,11,3.83,3.83,0,0,0,3.78,4.83H89.17A3.83,3.83,0,0,0,93,128.09Z"/><path d="M100.85,79.88,70.35,34.13V71.07a11.68,11.68,0,1,1-7.78,0V34.13L32.07,79.88a3.89,3.89,0,0,0,.48,4.91A49.23,49.23,0,0,1,46,111a23.09,23.09,0,0,1,8.74-1.73H78.14A23.09,23.09,0,0,1,86.88,111a49.23,49.23,0,0,1,13.49-26.24A3.89,3.89,0,0,0,100.85,79.88Z"/><path d="M66.46,78.14A3.9,3.9,0,1,0,70.35,82,3.9,3.9,0,0,0,66.46,78.14Z"/></g></g></svg>