<svg xmlns="http://www.w3.org/2000/svg" viewBox="0 0 128.82 120.01"><title>digital</title><g id="Layer_2" data-name="Layer 2"><g id="Layer_1-2" data-name="Layer 1"><path d="M118.06,0H10.76A10.76,10.76,0,0,0,0,10.76V86.89A10.76,10.76,0,0,0,10.76,97.65h107.3a10.76,10.76,0,0,0,10.76-10.76V10.76A10.76,10.76,0,0,0,118.06,0Zm-96,83.31H14.62V75.58h7.45Zm0-15.3H14.62V60.27h7.45Zm0-15.32H14.62V45h7.45Zm0-15.31H14.62V29.64h7.45Zm0-15.31H14.62V14.33h7.45Zm91.85,61.24H29.51v-69h84.41Z"/><rect x="39.32" y="22.34" width="64.8" height="52.96"/><path d="M21.48,112.57a7.44,7.44,0,0,1,7.44-7.45H37.7V120H28.92A7.44,7.44,0,0,1,21.48,112.57Z"/><polygon points="40.48 120.01 40.48 105.12 93.8 105.12 105.05 112.56 93.8 120.01 40.48 120.01"/></g></g></svg>