<?xml version="1.0" encoding="utf-8"?>
<!-- Generator: Adobe Illustrator 24.0.1, SVG Export Plug-In . SVG Version: 6.00 Build 0)  -->
<svg version="1.1" id="Layer_1" xmlns="http://www.w3.org/2000/svg" xmlns:xlink="http://www.w3.org/1999/xlink" x="0px" y="0px"
	 viewBox="0 0 25 25" style="enable-background:new 0 0 25 25;" xml:space="preserve">
<title>Modern Education 01 solid</title>
<g>
	<circle cx="6.6" cy="13.5" r="1.1"/>
	<circle cx="9.1" cy="15.7" r="1.1"/>
	<circle cx="7.3" cy="10.5" r="1.1"/>
	<path d="M11.5,12.4c-0.6,0-1.1,0.5-1.1,1.1c0,0.6,0.5,1.1,1.1,1.1c0.6,0,1.1-0.5,1.1-1.1c0,0,0,0-0.1-0.1c-0.2-0.2-0.4-0.6-0.4-0.9
		C12,12.5,11.8,12.4,11.5,12.4z"/>
	<path d="M9.9,9.9c0.1-0.1,0.3-0.3,0.4-0.5c0.4-0.5,0.4-1.1,0.1-1.6c-0.2-0.3-0.5-0.6-0.9-0.6C9.2,7.2,9,7.2,8.8,7.2h0
		c-0.4,0-0.8,0.1-1.2,0.2C6.9,7.7,6.3,8.1,5.8,8.6C5.5,8.8,5.3,9.1,5.1,9.4c-0.2,0.3-0.4,0.6-0.5,1c-0.6,1.3-0.8,2.7-0.5,4
		c0.3,1.4,1,2.4,2.1,3c0.9,0.5,2,0.8,3,0.8l0,0l0,0c0,0,0.1,0,0.1,0c0.1,0,0.3,0,0.4,0c0.6-0.1,1.2-0.2,1.8-0.5
		c0.9-0.5,1.7-1.2,2.1-2.1c0.3-0.5,0.5-1.1,0.5-1.7l-0.3,0c-0.2,0-0.3,0-0.5,0c-0.1,0.5-0.2,0.9-0.4,1.3c-0.4,0.8-1,1.4-1.8,1.8
		c-0.5,0.2-1,0.4-1.5,0.4c-0.2,0-0.4,0-0.5,0c-0.9,0-1.9-0.2-2.7-0.7c-1-0.6-1.5-1.4-1.8-2.5c-0.3-1.2-0.1-2.5,0.4-3.6
		c0.1-0.3,0.3-0.6,0.5-0.8c0.2-0.3,0.4-0.6,0.7-0.8c0.4-0.4,0.9-0.8,1.5-1C8.1,8,8.5,7.9,8.8,7.9c0.2,0,0.3,0,0.5,0.1
		c0.2,0,0.3,0.1,0.4,0.3c0.2,0.2,0.1,0.5,0,0.7C9.5,9.2,9.4,9.3,9.3,9.5C9.1,9.6,9,9.8,9,10.1c-0.1,0.3,0,0.6,0.3,0.7
		c0.3,0.2,0.6,0.3,0.9,0.3c0.4,0.1,0.8,0.1,1.1,0.1c0.3,0,0.7,0.1,1,0.3l0-0.2c0-0.2,0.1-0.4,0.1-0.5c-0.3-0.2-0.7-0.3-1.1-0.3
		c-0.4,0-0.8-0.1-1.1-0.1c-0.2,0-0.3-0.1-0.5-0.1C9.8,10.1,9.8,10,9.9,9.9L9.9,9.9z"/>
	<path d="M14.4,9.7c-0.7,0.3-1.2,0.9-1.3,1.6l-0.1,1c-0.1,0.4,0.2,0.8,0.7,0.9c0.1,0,0.1,0,0.2,0l1-0.1c0.8-0.1,1.4-0.7,1.7-1.4
		c0.4-0.1,0.8-0.3,1-0.6l5-5.3C23.1,5,23.2,4,22.6,3.5C22.3,3.2,22,3,21.6,3c-0.5,0-0.9,0.2-1.3,0.5l-5.3,5
		C14.7,8.9,14.5,9.3,14.4,9.7z M15.6,9.1l5.3-5c0.2-0.2,0.5-0.3,0.7-0.3c0.2,0,0.3,0.1,0.5,0.2c0.3,0.3,0.2,0.8-0.1,1.2l-5,5.3
		c-0.3,0.3-0.6,0.5-1,0.5c-0.1,0-0.1,0-0.2,0c0,0.1,0,0.2,0,0.3c-0.1,0.6-0.5,1-1.1,1.1l-1,0.1l0.1-1c0.1-0.6,0.5-1,1.1-1.1
		c0,0,0.1,0,0.1,0c0,0,0,0,0.1,0C15,9.9,15.2,9.4,15.6,9.1z"/>
	<path d="M23.5,5.6c-0.1,0.2-0.3,0.4-0.4,0.6l-5,5.3c-0.3,0.3-0.6,0.6-1,0.7c-0.4,0.8-1.1,1.4-2,1.5c0,0.8-0.2,1.5-0.6,2.2
		c-0.5,1.1-1.4,1.9-2.5,2.5c-0.6,0.3-1.3,0.5-2,0.5c-0.2,0-0.3,0-0.5,0l-0.1,0c0,0-0.1,0-0.1,0h0l0,0c-1.2,0-2.4-0.3-3.4-0.9
		c-1.3-0.8-2.1-2-2.5-3.5c-0.3-1.5-0.2-3.1,0.5-4.5C4,9.7,4.2,9.3,4.4,9C4.7,8.7,5,8.3,5.3,8c0.6-0.6,1.3-1,2-1.3
		c0.5-0.2,1-0.3,1.5-0.3c0.3,0,0.6,0,0.9,0.1c0.6,0.1,1.1,0.5,1.4,1c0.4,0.7,0.4,1.5,0.1,2.2c0.1,0,0.2,0,0.3,0
		c0.5,0,0.9,0.2,1.4,0.4c0.2-0.3,0.6-0.6,0.9-0.8c0.2-0.4,0.4-0.8,0.8-1.2L17,5.6H1.8c-0.8,0-1.5,0.7-1.5,1.5v11.1
		c0,0.8,0.7,1.5,1.5,1.5h21.4c0.8,0,1.5-0.7,1.5-1.5V7.2C24.7,6.4,24.2,5.8,23.5,5.6z"/>
</g>
</svg>
