
<svg version="1.1" id="Layer_1" xmlns="http://www.w3.org/2000/svg" xmlns:xlink="http://www.w3.org/1999/xlink" x="0px" y="0px"
	 viewBox="0 0 20 20" style="enable-background:new 0 0 20 20;" xml:space="preserve">
<style>
    path {
      fill: #212121;
    }

    @media (prefers-color-scheme: dark) {
      path {
        fill: white;
      }
    }
</style>
<g>
	<g>
		<path d="M8.8,15.1H5.6c-2.8,0-5-2.2-5.1-5c0-2.8,2.2-5.1,5-5.1h3.3l0,0c0,1-0.8,1.7-1.7,1.7H5.6c-1.8,0-3.3,1.4-3.3,3.2
			c0,1.8,1.4,3.3,3.3,3.3h1.5v-1.5c0-1,0.8-1.7,1.7-1.7l0,0V15.1z"/>
	</g>
	<g>
		<path d="M11.2,18.3L11.2,18.3v-5h3.2c1.8,0,3.3-1.4,3.3-3.2c0-1.8-1.4-3.3-3.3-3.3h-3.3l0,0c0-1,0.8-1.7,1.7-1.7h1.4
			c2.8,0,5,2.2,5.1,5c0,2.8-2.2,5.1-5,5.1h-1.5v1.5C12.9,17.6,12.1,18.3,11.2,18.3z"/>
	</g>
</g>
</svg>
