<svg height="512pt" viewBox="0 0 512 512" width="512pt" xmlns="http://www.w3.org/2000/svg"><path d="m143.53125 207.800781v224.929688h273.140625.019531l-.019531-224.929688h-.640625l-29.871094 29.871094c-30.46875 30.476563-70.988281 47.257813-114.082031 47.257813-24.816406 0-45.007813-20.179688-45.007813-45 0-10.917969 1.078126-21.667969 3.179688-32.128907zm0 0"/><path d="m481.800781 142.03125-44.25 44.257812c5.621094 5.449219 9.121094 13.082032 9.121094 21.511719v224.929688c0 16.550781-13.460937 30-30 30h-273.140625c-16.542969 0-30-13.449219-30-30v-224.929688c0-16.539062 13.457031-30 30-30h95.890625c7.527344-18.070312 18.398437-34.742187 32.277344-49.269531h-224.570313c-12.589844 0-24.429687 4.910156-33.308594 13.796875-8.910156 8.902344-13.820312 20.742187-13.820312 33.34375v289.199219c0 12.589844 4.910156 24.429687 13.800781 33.308594 8.898438 8.910156 20.738281 13.820312 33.328125 13.820312h401.671875c12.597657 0 24.429688-4.910156 33.320313-13.800781 8.910156-8.898438 13.808594-20.738281 13.808594-33.328125v-289.199219c0-12.601563-4.898438-24.441406-13.800782-33.320313-.109375-.113281-.21875-.222656-.328125-.320312zm-402.53125 290.699219c0 8.289062-6.71875 15-15 15-8.289062 0-15-6.710938-15-15v-32.128907c0-8.28125 6.710938-15 15-15 8.28125 0 15 6.71875 15 15zm0-96.402344c0 8.292969-6.71875 15-15 15-8.289062 0-15-6.707031-15-15v-32.128906c0-8.277344 6.710938-15 15-15 8.28125 0 15 6.722656 15 15zm0-96.398437c0 8.289062-6.71875 15-15 15-8.289062 0-15-6.710938-15-15v-32.128907c0-8.28125 6.710938-15 15-15 8.28125 0 15 6.71875 15 15zm0 0"/><path d="m497.636719 14.386719c-.003907-.003907-.007813-.007813-.011719-.011719s-.007812-.007812-.011719-.011719c-9.273437-9.261719-21.597656-14.363281-34.699219-14.363281-13.109374 0-25.429687 5.105469-34.699218 14.371094l-132.675782 132.679687c-24.808593 24.808594-38.472656 57.789063-38.472656 92.875v.007813c0 8.285156 6.722656 15 15.007813 15 35.085937 0 68.066406-13.664063 92.875-38.472656l132.679687-132.675782c9.265625-9.269531 14.371094-21.589844 14.371094-34.699218 0-13.101563-5.101562-25.425782-14.363281-34.699219zm0 0"/></svg>