<svg height="512pt" viewBox="0 0 512 512" width="512pt" xmlns="http://www.w3.org/2000/svg"><path d="m0 512h512v-362h-512zm366.394531-245.394531 21.210938-21.210938 70.609375 70.605469-70.609375 70.605469-21.210938-21.210938 49.390625-49.394531zm-61-21.210938 21.210938 21.210938-120 120-21.210938-21.210938zm-181 0 21.210938 21.210938-49.390625 49.394531 49.390625 49.394531-21.210938 21.210938-70.609375-70.605469zm0 0"/><path d="m0 0v120h512v-90h-256l-44-30zm90 90h-30v-30h30zm60 0h-30v-30h30zm60 0h-30v-30h30zm0 0"/></svg>