<svg xmlns="http://www.w3.org/2000/svg" viewBox="0 0 170 40.73"><defs><style>.cls-1{fill:#9e9e9e;}</style></defs><title>Asset 8</title><g id="Layer_2" data-name="Layer 2"><g id="Layer_1-2" data-name="Layer 1"><path class="cls-1" d="M43.35,3a12.55,12.55,0,0,0-6.69,8.43c-1.2,5.14,3.8,7.32,4.21,6.6s-.9-1.12-1.18-3.78c-.37-3.45,1.23-7.3,3.25-9,.37-.31.36.13.36.93,0,1.45-.08,14.42-.08,17.12a23.41,23.41,0,0,1-.43,6c-.27,1.16-.71,1.94-.38,2.24s2-.46,2.9-1.75a9.65,9.65,0,0,0,1.57-5.44c.08-2.43.08-6.3.08-8.5,0-2,0-7.95,0-11.51,0-.87-2.44-1.79-3.58-1.31m97,17.14a11.29,11.29,0,0,1-1,4.44c-1,2-3.11,2.66-4-.26a16.79,16.79,0,0,1-.16-6.47c.36-2.27,1.35-4,3-3.82s2.38,2.24,2.2,6.11ZM113,31.94c0,3.16-.52,5.93-1.59,6.74-1.51,1.14-3.55.28-3.12-2,.37-2,2.13-4.13,4.72-6.68,0,0,0,.58,0,2Zm-.41-11.83a12.51,12.51,0,0,1-1,4.46c-1,2-3.12,2.66-4-.26a14.63,14.63,0,0,1-.16-6.22c.39-2.11,1.32-4.07,3-4.07s2.44,1.79,2.21,6.09Zm-15.85,0a11.26,11.26,0,0,1-1,4.49c-1,2-3.1,2.66-4-.26a15.57,15.57,0,0,1-.15-6.52c.4-2.3,1.41-3.93,3-3.77s2.41,2.24,2.2,6.06Zm72.61,2.15c-.39,0-.57.4-.72,1.09-.52,2.39-1.07,2.93-1.77,2.93s-1.49-1.18-1.67-3.55a77.85,77.85,0,0,1,.06-8.71c0-.7-.16-1.4-2-2.08-.81-.29-2-.73-2.57.69a35.46,35.46,0,0,0-2.46,8.45c0,.07-.09.09-.1-.07a63,63,0,0,1-.34-6.85,2.06,2.06,0,0,0-1-2c-.55-.35-2.22-1-2.82-.23a15.23,15.23,0,0,0-1.76,4.12l-.86,2.6s0-4.19,0-5.77a.83.83,0,0,0-.53-.84,11.39,11.39,0,0,0-2.12-.43c-.58,0-.72.32-.72.79,0,.06-.09,5.51-.09,9.32v.54c-.32,1.75-1.35,4.13-2.47,4.13s-1.66-1-1.66-5.54c0-2.65.08-3.8.12-5.72,0-1.1.07-2,.07-2.14,0-.59-1-.89-1.51-1a4.82,4.82,0,0,0-1.21-.14.76.76,0,0,0-.78.74v.65a4.34,4.34,0,0,0-2.17-1.76,4.16,4.16,0,0,0-4.81,1.81,11,11,0,0,0-2,5.6,16.35,16.35,0,0,0,.2,5.08c-.39,1.71-1.13,2.42-1.94,2.42-1.16,0-2-1.91-1.91-5.21a29.89,29.89,0,0,1,1-5.9,1.94,1.94,0,0,0-.37-1.91,2.38,2.38,0,0,0-2.35-.38c-.82.2-2,.4-3.09.56a5.24,5.24,0,0,0,.12-.71c.28-2.41-2.33-2.21-3.16-1.45a3,3,0,0,0-1,2,2.33,2.33,0,0,0,1.06,2.27,23.45,23.45,0,0,1-2.47,6.14A26.25,26.25,0,0,1,116,24.21c0-.28,0-.56,0-.84,0-4,0-7.1.07-8.23s.06-1.93.06-2.12c0-.43-.26-.59-.78-.8a5.46,5.46,0,0,0-1.58-.35c-.72-.06-1.15.32-1.14.77v.61a4.34,4.34,0,0,0-2.17-1.76,4.17,4.17,0,0,0-4.81,1.81,12.07,12.07,0,0,0-2,5.58,17.25,17.25,0,0,0,.1,4.78c-.27,1.34-1,2.74-1.92,2.74-1.13,0-1.77-1-1.77-5.54,0-2.65.08-3.8.12-5.72,0-1.1.07-2,.07-2.14,0-.59-1-.89-1.51-1a4,4,0,0,0-1.25-.13.8.8,0,0,0-.74.71v.67a4.34,4.34,0,0,0-2.17-1.76,4.18,4.18,0,0,0-4.81,1.81,10.56,10.56,0,0,0-2,5.55,19.17,19.17,0,0,0-.15,2.43c-.35,2.14-1.9,4.61-3.16,4.61-.75,0-1.45-1.43-1.45-4.5,0-4.08.25-9.89.29-10.45l1.91,0c.8,0,1.53,0,2.59-.05.53,0,1-1.94.5-2.17a19.44,19.44,0,0,0-2.72-.22c-.58,0-2.22-.13-2.22-.13s.15-3.86.18-4.27-.41-.51-.66-.62a9.38,9.38,0,0,0-1.81-.52c-.9-.18-1.31,0-1.39.76-.12,1.15-.18,4.52-.18,4.52-.66,0-2.91-.13-3.57-.13s-1.27,2.63-.42,2.66,2.67.07,3.79.11c0,0,0,5.9,0,7.73,0,.19,0,.38,0,.56a8.91,8.91,0,0,1-2.8,5C77,22,76.08,20.37,74.35,19c-.63-.5-1.88-1.44-3.29-2.48a8.36,8.36,0,0,0,1.54-2.41c.51-1.14.53-2.45-.72-2.74a3.76,3.76,0,0,0-4.29,2.67,3.11,3.11,0,0,0,.59,3.16l.18.22c-.47.9-1.11,2.11-1.65,3.05-1.51,2.61-2.65,4.67-3.51,4.67-.69,0-.68-2.09-.68-4,0-1.7.12-4.24.22-6.87a1.92,1.92,0,0,0-1.13-1.82,5.17,5.17,0,0,0-1.94-.81c-.82,0-3.19.11-5.43,6.58-.28.82-.83,2.3-.83,2.3l0-7.78a.54.54,0,0,0-.31-.48,5.65,5.65,0,0,0-2.28-.62c-.43,0-.64.2-.64.59l-.08,12.18a18.47,18.47,0,0,0,.11,2.48,2.48,2.48,0,0,0,.43,1.08,1.23,1.23,0,0,0,.74.48c.32.06,2.1.29,2.19-.39a24.44,24.44,0,0,1,1-5c1.45-5.1,3.34-7.59,4.23-8.48.15-.15.33-.16.32.09,0,1.12-.17,3.92-.26,6.29-.24,6.36.92,7.54,2.57,7.54,1.26,0,3-1.26,5-4.44,1.19-2,2.35-3.92,3.18-5.32.58.53,1.23,1.11,1.88,1.72,1.5,1.44,2,2.8,1.67,4.09-.25,1-1.2,2-2.88,1-.49-.29-.7-.52-1.2-.84a.82.82,0,0,0-.91,0A3.26,3.26,0,0,0,67,26.51c-.2.72.53,1.11,1.29,1.45a10,10,0,0,0,2.94.58c3.48.12,6.27-1.68,8.21-6.32.35,4,1.83,6.27,4.4,6.27,1.72,0,3.44-2.22,4.19-4.4a8,8,0,0,0,1,2.32c2,3.13,5.82,2.46,7.75-.2a5.08,5.08,0,0,0,.69-1.12,3.63,3.63,0,0,0,3.47,3.39c1.29,0,2.63-.61,3.57-2.73a7,7,0,0,0,.37.66c2,3.13,5.82,2.46,7.75-.2.09-.13.17-.24.23-.34l.06,1.65-1.77,1.63c-3,2.72-5.24,4.79-5.41,7.2-.21,3.08,2.28,4.22,4.17,4.37a5.31,5.31,0,0,0,4.77-2.5c.93-1.36,1.53-4.29,1.49-7.19,0-1.16,0-2.63-.07-4.21a33.62,33.62,0,0,0,6.4-11.18s1.1,0,2.28-.06c.37,0,.48.05.41.32s-1.48,5.73-.21,9.33a4.52,4.52,0,0,0,4,3.25,4,4,0,0,0,3.38-2.56c.08.17.17.33.26.49,2,3.13,5.81,2.45,7.75-.21a8.21,8.21,0,0,0,.69-1.11,3.77,3.77,0,0,0,3.6,3.4c1.21,0,2.36-.49,3.29-2.69a10.78,10.78,0,0,0,.19,2c.06.15.41.34.65.44a5,5,0,0,0,2.65.13c.29-.06.52-.29.55-.89a34.84,34.84,0,0,1,.51-6.17,18.26,18.26,0,0,1,1.89-5.2c.2-.36.43-.42.43,0,0,.76.06,3,.37,6a13.87,13.87,0,0,0,.76,3.91,2.15,2.15,0,0,0,2.16,1.23c.43,0,1.32-.11,1.24-.86a23.8,23.8,0,0,1,.82-5.87,28.05,28.05,0,0,1,1.68-4.73c.11-.26.17-.06.17,0a41.79,41.79,0,0,0,.38,8.84c.8,3.54,3.13,3.93,4,3.93,1.73,0,3.15-1.32,3.62-4.78.12-.84-.05-1.48-.56-1.48"/><path class="cls-1" d="M16,2.88c4.26,0,4.76,0,6.45.09a8.76,8.76,0,0,1,3,.55,5,5,0,0,1,1.84,1.19,4.91,4.91,0,0,1,1.19,1.84,8.76,8.76,0,0,1,.55,3c.08,1.69.09,2.19.09,6.46s0,4.76-.09,6.45a8.76,8.76,0,0,1-.55,3,5.22,5.22,0,0,1-3,3,8.76,8.76,0,0,1-3,.55c-1.69.08-2.19.09-6.45.09S11.2,29,9.51,29a8.76,8.76,0,0,1-3-.55,4.91,4.91,0,0,1-1.84-1.19,4.91,4.91,0,0,1-1.19-1.84,8.76,8.76,0,0,1-.55-3c-.08-1.69-.09-2.19-.09-6.45s0-4.77.09-6.46a8.76,8.76,0,0,1,.55-3A4.91,4.91,0,0,1,4.71,4.71,5,5,0,0,1,6.55,3.52a8.76,8.76,0,0,1,3-.55c1.69-.08,2.19-.09,6.46-.09M16,0c-4.34,0-4.88,0-6.59.1A11.34,11.34,0,0,0,5.51.84,7.84,7.84,0,0,0,2.68,2.68,7.84,7.84,0,0,0,.84,5.51,11.34,11.34,0,0,0,.1,9.38C0,11.09,0,11.63,0,16s0,4.87.1,6.58a11.34,11.34,0,0,0,.74,3.87,7.84,7.84,0,0,0,1.84,2.83,7.84,7.84,0,0,0,2.83,1.84,11.34,11.34,0,0,0,3.87.74c1.71.08,2.25.1,6.59.1s4.87,0,6.58-.1a11.34,11.34,0,0,0,3.87-.74,8.14,8.14,0,0,0,4.67-4.67,11.34,11.34,0,0,0,.74-3.87c.08-1.71.1-2.25.1-6.58s0-4.88-.1-6.59a11.34,11.34,0,0,0-.74-3.87,7.84,7.84,0,0,0-1.84-2.83A7.84,7.84,0,0,0,26.42.84,11.34,11.34,0,0,0,22.55.1C20.84,0,20.3,0,16,0Zm0,7.77A8.2,8.2,0,1,0,24.16,16,8.2,8.2,0,0,0,16,7.77Zm0,13.52A5.33,5.33,0,1,1,21.29,16,5.33,5.33,0,0,1,16,21.29ZM26.4,7.44a1.92,1.92,0,1,1-1.91-1.91A1.91,1.91,0,0,1,26.4,7.44Z"/></g></g></svg>