<?xml version="1.0" encoding="utf-8"?>
<!-- Generator: Adobe Illustrator 24.0.1, SVG Export Plug-In . SVG Version: 6.00 Build 0)  -->
<svg version="1.1" id="Layer_1" xmlns="http://www.w3.org/2000/svg" xmlns:xlink="http://www.w3.org/1999/xlink" x="0px" y="0px"
	 viewBox="0 0 25 25" style="enable-background:new 0 0 25 25;" xml:space="preserve">
<g>
	<path d="M22.7,1.3H2.3c-1.1,0-2,0.9-2,2v18.4c0,1.1,0.9,2,2,2h20.5c1.1,0,2-0.9,2-2V3.3C24.7,2.2,23.8,1.3,22.7,1.3z M23.7,21.7
		c0,0.5-0.4,1-1,1H2.3c-0.5,0-1-0.4-1-1V3.3c0-0.5,0.4-1,1-1h20.5c0.5,0,1,0.4,1,1V21.7z"/>
	<path d="M21.1,11L12,5.7c-0.6-0.3-1.2-0.3-1.8,0C9.9,5.9,9.6,6.1,9.5,6.4c0,0,0,0,0,0C9.3,6.8,9.1,6.9,9,7H7.4C7.3,7,7.2,7,7.1,7.1
		C7,7.2,6.9,7.3,6.9,7.5C6.9,7.7,7.2,8,7.4,8h1.4C9,8,9.3,8.1,9.3,8.4v0.2c0,0.1-0.1,0.2-0.1,0.3C9.1,8.9,8.9,9,8.8,9H6.5
		C6.3,9,6.2,9,6.1,9.1C6,9.2,6,9.3,6,9.5C6,9.7,6.2,10,6.5,10h2.3c0.3,0,0.5,0.2,0.5,0.5c0,0.1-0.1,0.3-0.1,0.4
		C9,10.9,8.9,11,8.8,11h-1c-0.1,0-0.3,0.1-0.4,0.1s-0.1,0.2-0.1,0.4c0,0.3,0.2,0.5,0.5,0.5h1c0.2,0,0.4,0.2,0.5,0.4v0.2
		C9.2,12.8,9,13,8.8,13H6.1c-0.1,0-0.3,0.1-0.4,0.1c-0.1,0.1-0.1,0.2-0.1,0.4c0,0.3,0.2,0.5,0.5,0.5h2.7c0.2,0,0.5,0.2,0.5,0.4v0.2
		c0,0.1-0.1,0.2-0.1,0.3C9.1,14.9,8.9,15,8.8,15H7.4c-0.1,0-0.3,0.1-0.4,0.1c-0.1,0.1-0.1,0.2-0.1,0.4c0,0.3,0.2,0.5,0.5,0.5h1.4
		c0.3,0,0.5,0.2,0.5,0.5c0,0.1-0.1,0.3-0.1,0.4C9,16.9,8.9,17,8.8,17H6.7c-0.1,0-0.3,0.1-0.4,0.1s-0.1,0.2-0.1,0.4
		c0,0.3,0.2,0.5,0.5,0.5h2.2c0.1,0,0.3,0.1,0.5,0.4c0.1,0.4,0.4,0.8,0.8,1c0.3,0.2,0.6,0.2,0.9,0.2c0.3,0,0.6-0.1,0.9-0.2l9.1-5.3
		c0.6-0.3,0.9-0.9,0.9-1.5C22,11.9,21.6,11.3,21.1,11z"/>
	<path d="M5,10c0.3,0,0.5-0.2,0.5-0.5C5.5,9.2,5.3,9,5,9H3.8C3.5,9,3.3,9.2,3.3,9.5S3.5,10,3.8,10H5z"/>
	<path d="M6.4,15.5c0-0.3-0.2-0.5-0.5-0.5H4.7c-0.3,0-0.5,0.2-0.5,0.5c0,0.3,0.2,0.5,0.5,0.5h1.2C6.2,16,6.4,15.7,6.4,15.5z"/>
	<path d="M4.4,11.4c0,0.3,0.2,0.5,0.5,0.5h1.4c0.3,0,0.5-0.2,0.5-0.5c0-0.3-0.2-0.5-0.5-0.5H4.9C4.6,10.9,4.4,11.1,4.4,11.4z"/>
	<path d="M5.3,8h0.6c0.3,0,0.5-0.2,0.5-0.5C6.4,7.2,6.2,7,5.9,7H5.3C5,7,4.8,7.2,4.8,7.5C4.8,7.8,5,8,5.3,8z"/>
	<path d="M5.1,13.4c0-0.3-0.2-0.5-0.5-0.5H4.2c-0.3,0-0.5,0.2-0.5,0.5c0,0.3,0.2,0.5,0.5,0.5h0.4C4.9,13.9,5.1,13.7,5.1,13.4z"/>
	<circle cx="5.3" cy="17.4" r="0.5"/>
</g>
</svg>
